# xmcd
#
# Track frame offsets:
#	182
#	18890
#	48995
#	90800
#	122022
#	154957
#
# Disc length: 2304 seconds
#
# Revision: 1
# Processed by: cddbd v1.5.2PL0 Copyright (c) Steve Scherf et al.
# Submitted via: EZCDAudioConverter 1.3.4.1
#
DISCID=3908fe06
DTITLE=Yello - Tremendous Pain
DYEAR=1995
DGENRE=
TTITLE0=Tremendous Pain (Suite 904) [Single]
TTITLE1=Tremendous Pain (Suite 904)
TTITLE2=Tremendous Pain [Bible Mix]
TTITLE3=Tremendous Pain [Bobby D'Ambrosio's House Mix]
TTITLE4=Tremendous Pain [Steve Mac's Extended Mix]
TTITLE5=Tremendous Pain
EXTD=
EXTT0=
EXTT1=
EXTT2=
EXTT3=
EXTT4=
EXTT5=
PLAYORDER=
